<?xml version="1.0" encoding="UTF-8"?>
<svg width="512" height="512" viewBox="0 0 256 256" xmlns="http://www.w3.org/2000/svg">
  <defs>
    <linearGradient id="mane" x1="0" y1="0" x2="1" y2="1">
      <stop offset="0" stop-color="#ff9ac6"/>
      <stop offset="0.5" stop-color="#7ab6ff"/>
      <stop offset="1" stop-color="#8ff0c8"/>
    </linearGradient>
  </defs>
  <g fill="none" stroke="#111" stroke-width="6" stroke-linecap="round" stroke-linejoin="round">
    <!-- body (white) -->
    <rect x="40" y="56" rx="36" ry="36" width="176" height="140" fill="#ffffff"/>
    <!-- ears -->
    <path d="M62 64l-14-14 12-8 10 16z" fill="#ffd2e6"/>
    <path d="M194 64l14-14-12-8-10 16z" fill="#ffd2e6"/>
    <!-- horn -->
    <path d="M128 18l10 30-10 6-10-6z" fill="#ffd166"/>
    <!-- mane (gradient) -->
    <path d="M48 100c14-18 36-34 56-34h56c16 0 24 14 20 28-8 26-40 44-68 52" fill="url(#mane)"/>
    <!-- eyes & mouth -->
    <circle cx="96" cy="110" r="4" fill="#111" stroke="none"/>
    <circle cx="160" cy="110" r="4" fill="#111" stroke="none"/>
    <path d="M102 126c12 10 40 10 52 0" stroke="#111"/>
    <!-- heart cutie mark -->
    <path d="M186 150c6-8 16-4 16 4 0 6-6 10-16 18-10-8-16-12-16-18 0-8 10-12 16-4z" fill="#ff6aa8"/>
    <!-- legs -->
    <rect x="76" y="196" width="28" height="28" rx="6" fill="#ffffff"/>
    <rect x="152" y="196" width="28" height="28" rx="6" fill="#ffffff"/>
    <!-- shoes -->
    <rect x="82" y="214" width="16" height="6" rx="3" fill="#7ab6ff"/>
    <rect x="158" y="214" width="16" height="6" rx="3" fill="#7ab6ff"/>
    <!-- blush -->
    <circle cx="80" cy="124" r="6" fill="#ff9ac6" stroke="none"/>
    <circle cx="176" cy="124" r="6" fill="#ff9ac6" stroke="none"/>
  </g>
</svg>
