<svg xmlns="http://www.w3.org/2000/svg" viewBox="0 0 256 256">
  <g stroke="#0f0f0f" stroke-width="10" stroke-linecap="round" stroke-linejoin="round">
    <circle cx="68" cy="54" r="26" fill="#0f0f0f"/>
    <circle cx="188" cy="54" r="26" fill="#0f0f0f"/>
    <rect x="40" y="62" rx="16" ry="16" width="176" height="32" fill="#FF9EC7"/>
    <rect x="32" y="88" width="192" height="120" rx="60" fill="#89E4DE"/>
    <circle cx="100" cy="140" r="6" fill="#0f0f0f" stroke="none"/>
    <circle cx="156" cy="140" r="6" fill="#0f0f0f" stroke="none"/>
    <path d="M96 162 q32 22 64 0" fill="none"/>
    <path d="M32 168 h192 v30 a16 16 0 0 1 -16 16 H48 a16 16 0 0 1 -16 -16 z" fill="white"/>
    <circle cx="128" cy="184" r="6" fill="#FF9EC7" stroke="none"/>
    <circle cx="128" cy="200" r="6" fill="#FF9EC7" stroke="none"/>
    <rect x="36" y="182" width="44" height="28" rx="6" fill="#4F6BFF"/>
    <line x1="58" y1="184" x2="58" y2="208"/>
    <path d="M208 170 q10 -6 10 -18 v-16" fill="none"/>
    <rect x="84" y="208" width="28" height="34" rx="8" fill="#FF9EC7"/>
    <rect x="144" y="208" width="28" height="34" rx="8" fill="#FF9EC7"/>
    <rect x="78" y="238" width="40" height="14" rx="7" fill="#0f0f0f"/>
    <rect x="138" y="238" width="40" height="14" rx="7" fill="#0f0f0f"/>
  </g>
</svg>