<svg xmlns="http://www.w3.org/2000/svg" viewBox="0 0 256 256">
  <defs>
    <linearGradient id="robe" x1="0" y1="0" x2="0" y2="1">
      <stop offset="0" stop-color="#C084FC"/>
      <stop offset="1" stop-color="#8B5CF6"/>
    </linearGradient>
  </defs>
  <g stroke="#0f0f0f" stroke-width="10" stroke-linecap="round" stroke-linejoin="round">
    <path d="M48 92 q40 -56 80 -56 t80 56" fill="#C084FC"/>
    <rect x="36" y="92" width="184" height="20" rx="10" fill="#FF9EC7"/>
    <rect x="32" y="108" width="192" height="124" rx="62" fill="#89E4DE"/>
    <circle cx="100" cy="156" r="6" fill="#0f0f0f" stroke="none"/>
    <circle cx="156" cy="156" r="6" fill="#0f0f0f" stroke="none"/>
    <path d="M96 178 q32 22 64 0" fill="none"/>
    <path d="M32 188 h192 v34 a16 16 0 0 1 -16 16 H48 a16 16 0 0 1 -16 -16 z" fill="url(#robe)"/>
    <polygon points="64,206 69,216 80,217 72,224 74,235 64,229 54,235 56,224 48,217 59,216" fill="#FFD54A" stroke="none"/>
    <polygon points="192,206 197,214 206,216 199,222 200,231 192,226 184,231 185,222 178,216 187,214" fill="#FFD54A" stroke="none"/>
    <line x1="208" y1="186" x2="236" y2="162" stroke="#65758B" stroke-width="10"/>
    <circle cx="238" cy="158" r="8" fill="#FFD54A" stroke="#0f0f0f"/>
    <rect x="84" y="220" width="28" height="28" rx="8" fill="#8B5CF6"/>
    <rect x="144" y="220" width="28" height="28" rx="8" fill="#8B5CF6"/>
    <rect x="78" y="242" width="40" height="12" rx="6" fill="#0f0f0f"/>
    <rect x="138" y="242" width="40" height="12" rx="6" fill="#0f0f0f"/>
  </g>
</svg>