<svg xmlns="http://www.w3.org/2000/svg" viewBox="0 0 256 256">
  <g stroke="#0f0f0f" stroke-width="10" stroke-linecap="round" stroke-linejoin="round">
    <line x1="128" y1="30" x2="128" y2="54"/>
    <circle cx="128" cy="24" r="8" fill="#EF4444" stroke="#0f0f0f"/>
    <rect x="32" y="72" width="192" height="136" rx="24" fill="#D5DEE7"/>
    <rect x="32" y="72" width="192" height="60" rx="24" fill="#65758B"/>
    <circle cx="92" cy="102" r="10" fill="#22D3C5" stroke="#0f0f0f"/>
    <circle cx="164" cy="102" r="10" fill="#22D3C5" stroke="#0f0f0f"/>
    <rect x="92" y="122" width="72" height="16" rx="8" fill="white"/>
    <line x1="104" y1="122" x2="104" y2="138"/>
    <line x1="120" y1="122" x2="120" y2="138"/>
    <line x1="136" y1="122" x2="136" y2="138"/>
    <line x1="152" y1="122" x2="152" y2="138"/>
    <rect x="12" y="112" width="24" height="50" rx="8" fill="#65758B"/>
    <rect x="220" y="112" width="24" height="50" rx="8" fill="#65758B"/>
    <rect x="84" y="208" width="28" height="30" rx="8" fill="#65758B"/>
    <rect x="144" y="208" width="28" height="30" rx="8" fill="#65758B"/>
    <rect x="78" y="236" width="40" height="12" rx="6" fill="#0f0f0f"/>
    <rect x="138" y="236" width="40" height="12" rx="6" fill="#0f0f0f"/>
  </g>
</svg>