<svg xmlns="http://www.w3.org/2000/svg" viewBox="0 0 128 128" width="128" height="128" fill="none" stroke="#0f172a" stroke-width="6" stroke-linecap="round" stroke-linejoin="round"><rect x="14" y="14" width="100" height="100" rx="12" fill="#f97316" /><circle cx="28" cy="28" r="3" fill="#fff"/><circle cx="48" cy="28" r="3" fill="#fff"/><circle cx="68" cy="28" r="3" fill="#fff"/><circle cx="88" cy="28" r="3" fill="#fff"/><circle cx="108" cy="28" r="3" fill="#fff"/><circle cx="28" cy="48" r="3" fill="#fff"/><circle cx="48" cy="48" r="3" fill="#fff"/><circle cx="68" cy="48" r="3" fill="#fff"/><circle cx="88" cy="48" r="3" fill="#fff"/><circle cx="108" cy="48" r="3" fill="#fff"/><circle cx="28" cy="68" r="3" fill="#fff"/><circle cx="48" cy="68" r="3" fill="#fff"/><circle cx="68" cy="68" r="3" fill="#fff"/><circle cx="88" cy="68" r="3" fill="#fff"/><circle cx="108" cy="68" r="3" fill="#fff"/><circle cx="28" cy="88" r="3" fill="#fff"/><circle cx="48" cy="88" r="3" fill="#fff"/><circle cx="68" cy="88" r="3" fill="#fff"/><circle cx="88" cy="88" r="3" fill="#fff"/><circle cx="108" cy="88" r="3" fill="#fff"/><circle cx="28" cy="108" r="3" fill="#fff"/><circle cx="48" cy="108" r="3" fill="#fff"/><circle cx="68" cy="108" r="3" fill="#fff"/><circle cx="88" cy="108" r="3" fill="#fff"/><circle cx="108" cy="108" r="3" fill="#fff"/><polyline points="28,88 48,28 88,68 108,48" fill="none" stroke="#ffffff" stroke-width="6" stroke-linecap="round" stroke-linejoin="round"/></svg>